<?xml version="1.0" encoding="UTF-8"?>
<svg id="Warstwa_2" data-name="Warstwa 2" xmlns="http://www.w3.org/2000/svg" xmlns:xlink="http://www.w3.org/1999/xlink" viewBox="0 0 800 600">
  <defs>
    <style>
      .cls-1 {
        fill: url(#linear-gradient-2);
      }

      .cls-2 {
        fill: #fff;
      }

      .cls-3 {
        fill: #dbdbdc;
      }

      .cls-4 {
        fill: #e7d5cf;
      }

      .cls-5 {
        fill: url(#radial-gradient);
      }

      .cls-6 {
        fill: #eeedef;
      }

      .cls-7 {
        fill: url(#radial-gradient-2);
      }

      .cls-8 {
        fill: url(#linear-gradient-3);
      }

      .cls-9 {
        fill: url(#linear-gradient);
      }

      .cls-10 {
        fill: url(#linear-gradient-4);
      }
    </style>
    <radialGradient id="radial-gradient" cx="1058" cy="-205.67" fx="1058" fy="-205.67" r="1965.98" gradientTransform="translate(800 600) rotate(-180) scale(1 .75)" gradientUnits="userSpaceOnUse">
      <stop offset="0" stop-color="#d4ecf6"/>
      <stop offset=".38" stop-color="#a0d7db"/>
      <stop offset=".73" stop-color="#75c7c6"/>
      <stop offset=".91" stop-color="#65c1be"/>
    </radialGradient>
    <linearGradient id="linear-gradient" x1="415.45" y1="294.66" x2="428.77" y2="310.22" gradientUnits="userSpaceOnUse">
      <stop offset=".14" stop-color="#39485d"/>
      <stop offset=".4" stop-color="#3b4a5e"/>
      <stop offset=".55" stop-color="#425264"/>
      <stop offset=".67" stop-color="#4f606e"/>
      <stop offset=".77" stop-color="#61737c"/>
      <stop offset=".87" stop-color="#798c8e"/>
      <stop offset=".95" stop-color="#95aba4"/>
      <stop offset="1" stop-color="#abc2b5"/>
    </linearGradient>
    <linearGradient id="linear-gradient-2" x1="450.5" y1="292.18" x2="410.99" y2="305.31" xlink:href="#linear-gradient"/>
    <linearGradient id="linear-gradient-3" x1="450.92" y1="319.6" x2="391.04" y2="339.49" xlink:href="#linear-gradient"/>
    <linearGradient id="linear-gradient-4" x1="219.88" y1="542.93" x2="110.08" y2="720.83" gradientTransform="translate(471.09) rotate(-180) scale(1 -1)" gradientUnits="userSpaceOnUse">
      <stop offset="0" stop-color="#65c1be"/>
      <stop offset=".04" stop-color="#61b9b6"/>
      <stop offset=".15" stop-color="#58a8a5"/>
      <stop offset=".28" stop-color="#529c99"/>
      <stop offset=".47" stop-color="#4e9592"/>
      <stop offset="1" stop-color="#4e9491"/>
    </linearGradient>
    <radialGradient id="radial-gradient-2" cx="243.97" cy="364.17" fx="243.97" fy="364.17" r="785.45" gradientUnits="userSpaceOnUse">
      <stop offset="0" stop-color="#d4ecf6"/>
      <stop offset=".37" stop-color="#93d2d5"/>
      <stop offset=".65" stop-color="#65c1be"/>
    </radialGradient>
  </defs>
  <g id="Layer_1" data-name="Layer 1">
    <rect class="cls-5" x="0" y="0" width="800" height="600" transform="translate(800 600) rotate(-180)"/>
    <g>
      <g>
        <g>
          <polygon class="cls-3" points="387.89 375.62 469.98 324.18 394.68 353.82 387.89 375.62"/>
          <polygon class="cls-2" points="357.67 339.94 469.98 324.18 430.11 367.11 357.67 339.94"/>
          <polygon class="cls-6" points="388.15 351.37 387.89 375.62 394.68 353.82 469.98 324.18 388.15 351.37"/>
        </g>
        <g>
          <path class="cls-4" d="m423.11,297.76s-.12.91,0,1.69c.15.97.55,1.87.46,2.04-.15.3-.66.29-.66.29,0,0,.36,2.03.2,2.25s-1.73-.25-1.73-.25l-.53.8-2.71-.33v-.6l2.01-4.85,2.96-1.03Z"/>
          <polygon class="cls-2" points="418.14 305.06 418.14 304.25 420.85 304.58 421.38 305.52 420.63 305.06 418.14 305.06"/>
          <path class="cls-9" d="m417.31,297.76c-.52,1.85.83,5.89.83,5.89l2.31.39v-1.98s-.64-.9-.39-1.33.28-.6.66-.43.67,1.07.67,1.07l.48-.21s-.17-1.63,0-1.93,1.25-1.46,1.25-1.46c0,0-1.49-1.55-2.96-1.29s-2.84,1.29-2.84,1.29Z"/>
          <path class="cls-1" d="m423.06,299.02l20.45-5.73s.78.25,1.01,1.15,0,2,0,2l-21.36,3.36-.11-.78Z"/>
          <path class="cls-8" d="m433.55,297.95l-2.27.19-1.36,10.64-8.09-1.85c-.22-1.18-.55-1.87-1.14-1.87h-2.55c-.51,1.04-.9,2.2-1.21,3.42l-3.7,8.41,3.62,8.83c-.22,1.74-.78,3.12-.78,3.12h2.06v28.26h.04v.04s1.08-.03,1.08-.03c0,0,.01,0,.03-.01h.12v-.04c.2-.06.56-.18.98-.33v.65s1.09-.03,1.09-.03c0,0,4.31-1.41,3.83-1.53-.25-.06-1.63.04-2.87.16.49-.2.79-.36.64-.39-.17-.04-.82-.01-1.59.05l.16-26.95,1.19-.16s.87-5.59,0-11.98c-.39-2.9-.54-5.53-.74-7.54l9.02,1.7,2.43-12.77Zm-17.45,16.93c-.07,2.17.04,4.19.25,5.71l-1.35-3.38,1.11-2.33Zm3.36,40.95l.6-18.58.32,18.49c-.32.03-.63.06-.92.09Z"/>
        </g>
        <polygon class="cls-2" points="394.68 353.82 469.98 324.18 430.11 367.11 394.68 353.82"/>
      </g>
      <polygon class="cls-10" points="357.97 480.91 357.97 600 141.38 600 357.97 480.91"/>
      <polygon class="cls-7" points="357.97 480.91 141.38 600 0 600 0 324.03 357.97 480.91"/>
    </g>
  </g>
</svg>